<?xml version="1.0" encoding="UTF-8"?>
<svg xmlns="http://www.w3.org/2000/svg" xmlns:xlink="http://www.w3.org/1999/xlink" width="285pt" height="134pt" viewBox="0 0 285 134" version="1.1">
<g id="surface1">
<path style=" stroke:none;fill-rule:nonzero;fill:rgb(10.090637%,27.430725%,55.540466%);fill-opacity:1;" d="M 46.523438 55.425781 C 46.46875 54.898438 46.390625 54.488281 46.28125 54.179688 C 46.144531 53.796875 45.945312 53.523438 45.679688 53.363281 C 45.4375 53.21875 45.15625 53.148438 44.839844 53.148438 C 44.242188 53.148438 43.5 53.476562 42.570312 54.152344 C 41.757812 54.738281 40.695312 55.414062 39.414062 56.148438 C 38.148438 56.875 36.59375 57.542969 34.792969 58.132812 C 33.011719 58.71875 30.886719 59.015625 28.480469 59.015625 C 25.644531 59.015625 23.074219 58.503906 20.84375 57.5 C 18.621094 56.503906 16.71875 55.007812 15.1875 53.050781 C 13.648438 51.085938 12.449219 48.597656 11.617188 45.65625 C 10.785156 42.699219 10.363281 39.238281 10.363281 35.371094 C 10.363281 31.476562 10.800781 27.96875 11.667969 24.945312 C 12.527344 21.941406 13.753906 19.359375 15.3125 17.277344 C 16.859375 15.210938 18.746094 13.628906 20.921875 12.566406 C 23.105469 11.503906 25.5625 10.964844 28.226562 10.964844 C 30.691406 10.964844 32.832031 11.269531 34.582031 11.871094 C 36.355469 12.484375 37.878906 13.160156 39.101562 13.890625 C 40.34375 14.625 41.367188 15.308594 42.15625 15.917969 C 43.066406 16.628906 43.765625 16.960938 44.34375 16.960938 C 44.71875 16.960938 45.046875 16.847656 45.3125 16.628906 C 45.554688 16.433594 45.753906 16.148438 45.914062 15.761719 C 46.0625 15.414062 46.167969 15.007812 46.238281 14.507812 C 46.308594 14.039062 46.339844 13.464844 46.339844 12.800781 C 46.339844 12.210938 46.316406 11.691406 46.269531 11.257812 C 46.21875 10.828125 46.148438 10.441406 46.0625 10.105469 C 45.972656 9.757812 45.851562 9.453125 45.703125 9.1875 C 45.546875 8.921875 45.257812 8.574219 44.78125 8.101562 C 44.316406 7.640625 43.527344 7.078125 42.363281 6.382812 C 41.222656 5.703125 39.90625 5.097656 38.445312 4.578125 C 36.992188 4.066406 35.390625 3.636719 33.683594 3.300781 C 31.96875 2.960938 30.179688 2.789062 28.371094 2.789062 C 24.269531 2.789062 20.472656 3.546875 17.09375 5.035156 C 13.703125 6.53125 10.753906 8.726562 8.324219 11.566406 C 5.898438 14.398438 3.988281 17.898438 2.652344 21.964844 C 1.320312 26.019531 0.640625 30.695312 0.640625 35.867188 C 0.640625 40.910156 1.269531 45.433594 2.511719 49.3125 C 3.753906 53.210938 5.558594 56.53125 7.875 59.191406 C 10.199219 61.859375 13.046875 63.902344 16.34375 65.265625 C 19.628906 66.628906 23.359375 67.316406 27.425781 67.316406 C 29.777344 67.316406 31.976562 67.097656 33.96875 66.660156 C 35.953125 66.226562 37.734375 65.691406 39.273438 65.058594 C 40.8125 64.429688 42.121094 63.773438 43.160156 63.109375 C 44.222656 62.425781 44.910156 61.929688 45.253906 61.585938 C 45.605469 61.230469 45.851562 60.933594 46.007812 60.664062 C 46.152344 60.40625 46.273438 60.109375 46.363281 59.78125 C 46.453125 59.46875 46.515625 59.105469 46.546875 58.679688 C 46.582031 58.289062 46.597656 57.824219 46.597656 57.296875 C 46.597656 56.535156 46.574219 55.921875 46.523438 55.425781 "/>
<path style=" stroke:none;fill-rule:nonzero;fill:rgb(10.090637%,27.430725%,55.540466%);fill-opacity:1;" d="M 98.707031 63.550781 C 98.578125 63.070312 98.289062 62.261719 97.828125 61.082031 C 97.828125 61.074219 92.273438 47.429688 92.273438 47.429688 C 91.628906 45.851562 90.980469 44.421875 90.339844 43.175781 C 89.695312 41.914062 88.992188 40.777344 88.257812 39.796875 C 87.515625 38.808594 86.707031 37.953125 85.851562 37.246094 C 85.28125 36.773438 84.648438 36.375 83.988281 36.011719 C 85.421875 35.441406 86.753906 34.777344 87.953125 34.023438 C 89.460938 33.074219 90.773438 31.9375 91.855469 30.640625 C 92.945312 29.339844 93.789062 27.820312 94.367188 26.125 C 94.941406 24.4375 95.230469 22.503906 95.230469 20.386719 C 95.230469 18.203125 94.90625 16.175781 94.265625 14.359375 C 93.625 12.535156 92.648438 10.890625 91.359375 9.472656 C 90.078125 8.058594 88.472656 6.878906 86.585938 5.960938 C 84.714844 5.050781 82.535156 4.375 80.101562 3.953125 C 79.238281 3.855469 78.289062 3.765625 77.25 3.6875 C 76.203125 3.605469 74.878906 3.5625 73.308594 3.5625 L 60.136719 3.5625 C 59.292969 3.5625 58.488281 3.847656 57.746094 4.410156 C 56.960938 5.003906 56.558594 6.015625 56.558594 7.421875 L 56.558594 64.761719 C 56.558594 65.113281 56.652344 65.433594 56.835938 65.710938 C 57.03125 66 57.34375 66.21875 57.765625 66.367188 C 58.113281 66.488281 58.558594 66.589844 59.125 66.675781 C 59.679688 66.757812 60.375 66.800781 61.195312 66.800781 C 62.015625 66.800781 62.707031 66.757812 63.261719 66.675781 C 63.832031 66.589844 64.273438 66.484375 64.609375 66.363281 C 65 66.21875 65.304688 66.011719 65.511719 65.738281 C 65.722656 65.453125 65.828125 65.125 65.828125 64.761719 L 65.828125 38.882812 L 70.828125 38.882812 C 72.636719 38.882812 74.195312 39.152344 75.46875 39.679688 C 76.738281 40.210938 77.859375 40.964844 78.796875 41.914062 C 79.746094 42.878906 80.578125 44.046875 81.273438 45.382812 C 81.984375 46.765625 82.675781 48.289062 83.335938 49.914062 C 83.332031 49.90625 89.03125 64.515625 89.03125 64.515625 C 89.160156 64.914062 89.335938 65.28125 89.539062 65.574219 C 89.765625 65.90625 90.089844 66.167969 90.492188 66.347656 C 90.855469 66.515625 91.320312 66.628906 91.90625 66.703125 C 92.457031 66.769531 93.160156 66.800781 94.007812 66.800781 C 94.972656 66.800781 95.765625 66.769531 96.359375 66.703125 C 96.984375 66.632812 97.46875 66.527344 97.832031 66.382812 C 98.269531 66.207031 98.566406 65.964844 98.71875 65.660156 C 98.851562 65.394531 98.917969 65.09375 98.917969 64.761719 C 98.917969 64.460938 98.847656 64.0625 98.707031 63.550781 Z M 84.804688 25.226562 C 84.339844 26.421875 83.601562 27.476562 82.613281 28.359375 C 81.613281 29.253906 80.34375 29.960938 78.839844 30.460938 C 77.320312 30.96875 75.476562 31.226562 73.371094 31.226562 L 65.828125 31.226562 L 65.828125 11.351562 L 72.269531 11.351562 C 73.871094 11.351562 75.183594 11.398438 76.175781 11.492188 C 77.148438 11.585938 78.027344 11.742188 78.789062 11.953125 C 81.210938 12.652344 82.953125 13.796875 83.964844 15.359375 C 84.988281 16.945312 85.511719 18.921875 85.511719 21.238281 C 85.511719 22.671875 85.273438 24.011719 84.804688 25.226562 "/>
<path style=" stroke:none;fill-rule:nonzero;fill:rgb(13.729858%,12.159729%,12.548828%);fill-opacity:1;" d="M 238.804688 55.425781 C 238.753906 54.898438 238.671875 54.492188 238.5625 54.179688 C 238.425781 53.796875 238.222656 53.519531 237.957031 53.363281 C 237.71875 53.21875 237.4375 53.148438 237.121094 53.148438 C 236.523438 53.148438 235.78125 53.476562 234.851562 54.152344 C 234.039062 54.738281 232.976562 55.410156 231.695312 56.148438 C 230.429688 56.875 228.871094 57.542969 227.074219 58.132812 C 225.289062 58.71875 223.164062 59.015625 220.757812 59.015625 C 217.925781 59.015625 215.355469 58.503906 213.121094 57.5 C 210.898438 56.503906 208.996094 55.007812 207.46875 53.050781 C 205.929688 51.085938 204.726562 48.597656 203.898438 45.65625 C 203.066406 42.699219 202.644531 39.238281 202.644531 35.371094 C 202.644531 31.472656 203.082031 27.964844 203.945312 24.945312 C 204.808594 21.9375 206.035156 19.355469 207.59375 17.277344 C 209.140625 15.210938 211.027344 13.628906 213.203125 12.566406 C 215.386719 11.503906 217.84375 10.964844 220.507812 10.964844 C 222.972656 10.964844 225.109375 11.269531 226.859375 11.871094 C 228.632812 12.484375 230.15625 13.160156 231.386719 13.890625 C 232.625 14.628906 233.652344 15.308594 234.433594 15.917969 C 235.347656 16.628906 236.042969 16.960938 236.621094 16.960938 C 237 16.960938 237.324219 16.847656 237.59375 16.628906 C 237.835938 16.433594 238.03125 16.148438 238.195312 15.761719 C 238.34375 15.414062 238.449219 15.007812 238.519531 14.507812 C 238.589844 14.035156 238.621094 13.460938 238.621094 12.800781 C 238.621094 12.214844 238.597656 11.691406 238.546875 11.253906 C 238.496094 10.816406 238.429688 10.429688 238.34375 10.101562 C 238.246094 9.75 238.132812 9.453125 237.980469 9.1875 C 237.828125 8.921875 237.527344 8.566406 237.0625 8.101562 C 236.59375 7.636719 235.804688 7.074219 234.644531 6.382812 C 233.507812 5.703125 232.1875 5.097656 230.726562 4.578125 C 229.273438 4.066406 227.675781 3.636719 225.964844 3.300781 C 224.246094 2.960938 222.460938 2.789062 220.652344 2.789062 C 216.550781 2.789062 212.753906 3.546875 209.371094 5.035156 C 205.984375 6.53125 203.03125 8.726562 200.605469 11.566406 C 198.179688 14.398438 196.269531 17.898438 194.933594 21.964844 C 193.601562 26.019531 192.921875 30.695312 192.921875 35.867188 C 192.921875 40.914062 193.550781 45.4375 194.789062 49.3125 C 196.03125 53.210938 197.839844 56.53125 200.15625 59.191406 C 202.476562 61.859375 205.324219 63.902344 208.621094 65.265625 C 211.910156 66.628906 215.640625 67.316406 219.707031 67.316406 C 222.058594 67.316406 224.257812 67.097656 226.25 66.660156 C 228.230469 66.226562 230.015625 65.691406 231.554688 65.058594 C 233.089844 64.429688 234.394531 63.773438 235.4375 63.109375 C 236.503906 62.429688 237.1875 61.929688 237.53125 61.585938 C 237.890625 61.226562 238.136719 60.925781 238.285156 60.664062 C 238.433594 60.402344 238.554688 60.105469 238.644531 59.78125 C 238.730469 59.46875 238.792969 59.097656 238.828125 58.683594 C 238.863281 58.285156 238.878906 57.820312 238.878906 57.296875 C 238.878906 56.535156 238.855469 55.921875 238.804688 55.425781 "/>
<path style=" stroke:none;fill-rule:nonzero;fill:rgb(13.729858%,12.159729%,12.548828%);fill-opacity:1;" d="M 282.84375 42.050781 C 282.003906 40.195312 280.890625 38.566406 279.53125 37.207031 C 278.179688 35.855469 276.625 34.667969 274.90625 33.679688 C 273.203125 32.699219 271.453125 31.792969 269.699219 30.980469 C 269.699219 30.980469 264.539062 28.5625 264.539062 28.5625 C 262.882812 27.78125 261.390625 26.910156 260.097656 25.976562 C 258.832031 25.0625 257.804688 23.996094 257.046875 22.8125 C 256.304688 21.65625 255.929688 20.25 255.929688 18.632812 C 255.929688 17.519531 256.128906 16.453125 256.515625 15.464844 C 256.902344 14.484375 257.488281 13.628906 258.257812 12.917969 C 259.03125 12.199219 260.039062 11.613281 261.242188 11.179688 C 262.457031 10.738281 263.914062 10.511719 265.566406 10.511719 C 267.359375 10.511719 268.988281 10.738281 270.417969 11.179688 C 271.871094 11.632812 273.140625 12.136719 274.1875 12.671875 C 275.289062 13.238281 276.179688 13.722656 276.914062 14.160156 C 277.761719 14.660156 278.367188 14.898438 278.824219 14.898438 C 279.167969 14.898438 279.476562 14.785156 279.746094 14.566406 C 279.996094 14.359375 280.1875 14.054688 280.3125 13.652344 C 280.421875 13.316406 280.496094 12.914062 280.550781 12.425781 C 280.601562 11.964844 280.625 11.429688 280.625 10.835938 C 280.625 10.203125 280.609375 9.703125 280.574219 9.304688 C 280.539062 8.898438 280.488281 8.539062 280.421875 8.246094 C 280.34375 7.925781 280.25 7.664062 280.132812 7.449219 C 280.007812 7.222656 279.792969 6.957031 279.445312 6.617188 C 279.101562 6.273438 278.441406 5.859375 277.429688 5.34375 C 276.449219 4.84375 275.320312 4.386719 274.074219 3.988281 C 272.828125 3.585938 271.480469 3.261719 270.078125 3.023438 C 268.664062 2.78125 267.242188 2.660156 265.851562 2.660156 C 263.136719 2.660156 260.5625 3.03125 258.210938 3.761719 C 255.84375 4.496094 253.773438 5.582031 252.054688 6.988281 C 250.324219 8.40625 248.960938 10.183594 247.992188 12.269531 C 247.023438 14.351562 246.53125 16.753906 246.53125 19.398438 C 246.53125 21.980469 246.957031 24.234375 247.796875 26.09375 C 248.628906 27.945312 249.734375 29.582031 251.074219 30.957031 C 252.40625 32.320312 253.9375 33.523438 255.625 34.53125 C 257.289062 35.527344 259.023438 36.445312 260.785156 37.261719 L 265.925781 39.65625 C 267.558594 40.417969 269.03125 41.273438 270.3125 42.191406 C 271.558594 43.09375 272.578125 44.148438 273.335938 45.332031 C 274.074219 46.488281 274.449219 47.910156 274.449219 49.558594 C 274.449219 51.109375 274.175781 52.507812 273.632812 53.710938 C 273.09375 54.910156 272.3125 55.9375 271.3125 56.761719 C 270.300781 57.59375 269.066406 58.25 267.652344 58.707031 C 266.230469 59.167969 264.632812 59.402344 262.90625 59.402344 C 260.605469 59.402344 258.554688 59.128906 256.8125 58.585938 C 255.046875 58.039062 253.519531 57.445312 252.273438 56.820312 C 251.019531 56.191406 249.984375 55.605469 249.195312 55.078125 C 248.285156 54.472656 247.574219 54.179688 247.023438 54.179688 C 246.679688 54.179688 246.367188 54.257812 246.097656 54.414062 C 245.8125 54.582031 245.582031 54.863281 245.410156 55.246094 C 245.261719 55.582031 245.15625 55.996094 245.085938 56.511719 C 245.019531 57 244.984375 57.59375 244.984375 58.328125 C 244.984375 59.359375 245.078125 60.207031 245.269531 60.84375 C 245.46875 61.511719 245.78125 62.070312 246.203125 62.511719 C 246.605469 62.929688 247.28125 63.410156 248.277344 63.984375 C 249.234375 64.535156 250.4375 65.078125 251.855469 65.597656 C 253.25 66.113281 254.867188 66.554688 256.667969 66.910156 C 258.464844 67.265625 260.4375 67.445312 262.535156 67.445312 C 265.539062 67.445312 268.386719 67.035156 270.992188 66.226562 C 273.613281 65.410156 275.925781 64.179688 277.867188 62.566406 C 279.8125 60.945312 281.359375 58.945312 282.453125 56.621094 C 283.550781 54.296875 284.105469 51.617188 284.105469 48.652344 C 284.105469 46.132812 283.683594 43.910156 282.84375 42.050781 "/>
<path style=" stroke:none;fill-rule:evenodd;fill:rgb(10.090637%,27.430725%,55.540466%);fill-opacity:1;" d="M 134.128906 35.867188 C 134.082031 30.574219 138.234375 26.34375 143.527344 26.292969 C 148.824219 26.25 153.054688 30.402344 153.101562 35.699219 C 153.148438 40.996094 148.992188 45.441406 143.699219 45.492188 C 138.402344 45.539062 134.175781 41.164062 134.128906 35.867188 "/>
<path style=" stroke:none;fill-rule:nonzero;fill:rgb(13.729858%,12.159729%,12.548828%);fill-opacity:1;" d="M 155.394531 59.507812 C 154.363281 60.019531 153.59375 60.902344 153.226562 61.996094 C 152.859375 63.085938 152.941406 64.257812 153.457031 65.289062 C 153.96875 66.320312 154.851562 67.089844 155.941406 67.457031 C 157.035156 67.820312 158.207031 67.738281 159.238281 67.226562 C 171.359375 61.195312 178.824219 49.035156 178.699219 35.503906 L 178.625 33.453125 C 178.472656 31.085938 176.421875 29.277344 174.046875 29.429688 C 171.671875 29.578125 169.867188 31.632812 170.019531 34.007812 L 170.074219 35.578125 C 170.164062 45.785156 164.539062 54.953125 155.394531 59.507812 Z M 128.640625 14.015625 L 128.640625 14.011719 C 132.988281 11.015625 138.089844 9.410156 143.394531 9.367188 C 148.625 9.316406 153.695312 10.796875 158.0625 13.644531 C 159.023438 14.269531 160.179688 14.488281 161.308594 14.246094 C 162.4375 14.011719 163.398438 13.351562 164.027344 12.382812 C 165.328125 10.398438 164.761719 7.71875 162.773438 6.417969 C 156.980469 2.640625 150.253906 0.675781 143.316406 0.738281 C 136.28125 0.804688 129.515625 2.933594 123.746094 6.910156 C 121.789062 8.257812 121.296875 10.945312 122.644531 12.90625 C 123.992188 14.863281 126.6875 15.359375 128.640625 14.015625 Z M 128.550781 67.492188 C 129.59375 67.984375 130.765625 68.046875 131.851562 67.660156 C 132.933594 67.277344 133.808594 66.492188 134.300781 65.453125 C 134.796875 64.414062 134.859375 63.246094 134.472656 62.15625 C 134.085938 61.070312 133.300781 60.203125 132.265625 59.703125 C 123.050781 55.304688 117.269531 46.242188 117.175781 36.046875 L 117.207031 34.484375 C 117.261719 33.339844 116.863281 32.234375 116.089844 31.386719 C 115.316406 30.53125 114.253906 30.03125 113.097656 29.980469 C 111.949219 29.925781 110.847656 30.320312 109.996094 31.09375 C 109.144531 31.871094 108.644531 32.9375 108.59375 34.089844 C 108.59375 34.09375 108.550781 36.125 108.550781 36.125 C 108.671875 49.648438 116.335938 61.667969 128.550781 67.492188 "/>
<path style=" stroke:none;fill-rule:nonzero;fill:rgb(56.864929%,56.079102%,56.274414%);fill-opacity:1;" d="M 94.351562 107.960938 C 93.753906 108.273438 92.433594 108.601562 90.765625 108.601562 C 86.347656 108.601562 83.664062 105.816406 83.664062 101.585938 C 83.664062 97.007812 86.84375 94.242188 91.09375 94.242188 C 92.765625 94.242188 93.960938 94.59375 94.476562 94.859375 L 93.917969 96.882812 C 93.261719 96.59375 92.351562 96.34375 91.195312 96.34375 C 88.371094 96.34375 86.328125 98.121094 86.328125 101.464844 C 86.328125 104.515625 88.121094 106.476562 91.175781 106.476562 C 92.207031 106.476562 93.28125 106.269531 93.941406 105.960938 L 94.351562 107.960938 "/>
<path style=" stroke:none;fill-rule:nonzero;fill:rgb(56.864929%,56.079102%,56.274414%);fill-opacity:1;" d="M 97.882812 104.0625 C 97.945312 105.878906 99.367188 106.660156 100.976562 106.660156 C 102.152344 106.660156 102.996094 106.496094 103.761719 106.207031 L 104.132812 107.960938 C 103.265625 108.3125 102.070312 108.601562 100.625 108.601562 C 97.363281 108.601562 95.445312 106.582031 95.445312 103.507812 C 95.445312 100.71875 97.140625 98.097656 100.355469 98.097656 C 103.636719 98.097656 104.691406 100.78125 104.691406 102.988281 C 104.691406 103.464844 104.648438 103.835938 104.605469 104.0625 Z M 102.296875 102.285156 C 102.316406 101.359375 101.90625 99.832031 100.214844 99.832031 C 98.644531 99.832031 97.984375 101.257812 97.882812 102.285156 L 102.296875 102.285156 "/>
<path style=" stroke:none;fill-rule:nonzero;fill:rgb(56.864929%,56.079102%,56.274414%);fill-opacity:1;" d="M 106.730469 101.320312 C 106.730469 100.160156 106.710938 99.195312 106.648438 98.328125 L 108.878906 98.328125 L 109.003906 99.832031 L 109.0625 99.832031 C 109.496094 99.046875 110.589844 98.097656 112.261719 98.097656 C 114.015625 98.097656 115.832031 99.234375 115.832031 102.410156 L 115.832031 108.375 L 113.292969 108.375 L 113.292969 102.703125 C 113.292969 101.257812 112.757812 100.160156 111.375 100.160156 C 110.363281 100.160156 109.664062 100.886719 109.394531 101.648438 C 109.3125 101.875 109.289062 102.183594 109.289062 102.472656 L 109.289062 108.375 L 106.730469 108.375 L 106.730469 101.320312 "/>
<path style=" stroke:none;fill-rule:nonzero;fill:rgb(56.864929%,56.079102%,56.274414%);fill-opacity:1;" d="M 121.339844 95.746094 L 121.339844 98.328125 L 123.753906 98.328125 L 123.753906 100.222656 L 121.339844 100.222656 L 121.339844 104.660156 C 121.339844 105.878906 121.671875 106.519531 122.640625 106.519531 C 123.113281 106.519531 123.34375 106.476562 123.632812 106.394531 L 123.671875 108.332031 C 123.300781 108.476562 122.640625 108.601562 121.835938 108.601562 C 120.90625 108.601562 120.125 108.273438 119.648438 107.757812 C 119.113281 107.175781 118.863281 106.269531 118.863281 104.949219 L 118.863281 100.222656 L 117.421875 100.222656 L 117.421875 98.328125 L 118.863281 98.328125 L 118.863281 96.46875 L 121.339844 95.746094 "/>
<path style=" stroke:none;fill-rule:nonzero;fill:rgb(56.864929%,56.079102%,56.274414%);fill-opacity:1;" d="M 125.675781 101.566406 C 125.675781 100.203125 125.652344 99.234375 125.59375 98.328125 L 127.800781 98.328125 L 127.882812 100.246094 L 127.964844 100.246094 C 128.460938 98.824219 129.636719 98.097656 130.710938 98.097656 C 130.957031 98.097656 131.101562 98.121094 131.308594 98.160156 L 131.308594 100.554688 C 131.101562 100.515625 130.875 100.472656 130.5625 100.472656 C 129.347656 100.472656 128.519531 101.257812 128.296875 102.390625 C 128.253906 102.617188 128.210938 102.886719 128.210938 103.175781 L 128.210938 108.375 L 125.675781 108.375 L 125.675781 101.566406 "/>
<path style=" stroke:none;fill-rule:nonzero;fill:rgb(56.864929%,56.079102%,56.274414%);fill-opacity:1;" d="M 134.628906 104.0625 C 134.691406 105.878906 136.113281 106.660156 137.722656 106.660156 C 138.898438 106.660156 139.746094 106.496094 140.507812 106.207031 L 140.878906 107.960938 C 140.015625 108.3125 138.816406 108.601562 137.371094 108.601562 C 134.113281 108.601562 132.191406 106.582031 132.191406 103.507812 C 132.191406 100.71875 133.886719 98.097656 137.105469 98.097656 C 140.386719 98.097656 141.4375 100.78125 141.4375 102.988281 C 141.4375 103.464844 141.394531 103.835938 141.355469 104.0625 Z M 139.042969 102.285156 C 139.0625 101.359375 138.652344 99.832031 136.960938 99.832031 C 135.390625 99.832031 134.730469 101.257812 134.628906 102.285156 L 139.042969 102.285156 "/>
<path style=" stroke:none;fill-rule:nonzero;fill:rgb(56.864929%,56.079102%,56.274414%);fill-opacity:1;" d="M 148.039062 108.375 L 148.039062 100.222656 L 146.679688 100.222656 L 146.679688 98.328125 L 148.039062 98.328125 L 148.039062 97.894531 C 148.039062 96.59375 148.390625 95.292969 149.257812 94.46875 C 150 93.765625 151.011719 93.496094 151.878906 93.496094 C 152.558594 93.496094 153.09375 93.601562 153.507812 93.746094 L 153.320312 95.707031 C 153.054688 95.601562 152.703125 95.519531 152.246094 95.519531 C 150.988281 95.519531 150.558594 96.574219 150.558594 97.808594 L 150.558594 98.328125 L 152.765625 98.328125 L 152.765625 100.222656 L 150.578125 100.222656 L 150.578125 108.375 L 148.039062 108.375 "/>
<path style=" stroke:none;fill-rule:nonzero;fill:rgb(56.864929%,56.079102%,56.274414%);fill-opacity:1;" d="M 163.65625 103.257812 C 163.65625 106.953125 161.058594 108.601562 158.5 108.601562 C 155.652344 108.601562 153.464844 106.640625 153.464844 103.421875 C 153.464844 100.121094 155.632812 98.097656 158.664062 98.097656 C 161.65625 98.097656 163.65625 100.203125 163.65625 103.257812 Z M 156.085938 103.359375 C 156.085938 105.300781 157.035156 106.765625 158.582031 106.765625 C 160.027344 106.765625 161.035156 105.34375 161.035156 103.320312 C 161.035156 101.753906 160.335938 99.957031 158.601562 99.957031 C 156.808594 99.957031 156.085938 101.691406 156.085938 103.359375 "/>
<path style=" stroke:none;fill-rule:nonzero;fill:rgb(56.864929%,56.079102%,56.274414%);fill-opacity:1;" d="M 165.742188 101.566406 C 165.742188 100.203125 165.722656 99.234375 165.660156 98.328125 L 167.867188 98.328125 L 167.949219 100.246094 L 168.03125 100.246094 C 168.527344 98.824219 169.703125 98.097656 170.777344 98.097656 C 171.023438 98.097656 171.167969 98.121094 171.375 98.160156 L 171.375 100.554688 C 171.167969 100.515625 170.941406 100.472656 170.632812 100.472656 C 169.414062 100.472656 168.589844 101.257812 168.363281 102.390625 C 168.320312 102.617188 168.277344 102.886719 168.277344 103.175781 L 168.277344 108.375 L 165.742188 108.375 L 165.742188 101.566406 "/>
<path style=" stroke:none;fill-rule:nonzero;fill:rgb(56.864929%,56.079102%,56.274414%);fill-opacity:1;" d="M 177.460938 94.65625 C 178.410156 94.488281 179.832031 94.363281 181.296875 94.363281 C 183.300781 94.363281 184.660156 94.695312 185.589844 95.476562 C 186.351562 96.117188 186.785156 97.089844 186.785156 98.265625 C 186.785156 100.058594 185.566406 101.277344 184.269531 101.753906 L 184.269531 101.8125 C 185.257812 102.183594 185.855469 103.15625 186.207031 104.496094 C 186.640625 106.226562 187.011719 107.839844 187.300781 108.375 L 184.683594 108.375 C 184.476562 107.960938 184.144531 106.828125 183.753906 105.09375 C 183.359375 103.277344 182.699219 102.703125 181.257812 102.660156 L 179.976562 102.660156 L 179.976562 108.375 L 177.460938 108.375 Z M 179.976562 100.800781 L 181.484375 100.800781 C 183.195312 100.800781 184.269531 99.894531 184.269531 98.511719 C 184.269531 96.984375 183.195312 96.28125 181.546875 96.28125 C 180.738281 96.28125 180.226562 96.34375 179.976562 96.40625 L 179.976562 100.800781 "/>
<path style=" stroke:none;fill-rule:nonzero;fill:rgb(56.864929%,56.079102%,56.274414%);fill-opacity:1;" d="M 190.953125 104.0625 C 191.015625 105.878906 192.4375 106.660156 194.046875 106.660156 C 195.222656 106.660156 196.070312 106.496094 196.832031 106.207031 L 197.203125 107.960938 C 196.339844 108.3125 195.140625 108.601562 193.695312 108.601562 C 190.4375 108.601562 188.519531 106.582031 188.519531 103.507812 C 188.519531 100.71875 190.210938 98.097656 193.429688 98.097656 C 196.710938 98.097656 197.761719 100.78125 197.761719 102.988281 C 197.761719 103.464844 197.722656 103.835938 197.679688 104.0625 Z M 195.367188 102.285156 C 195.390625 101.359375 194.976562 99.832031 193.285156 99.832031 C 191.714844 99.832031 191.054688 101.257812 190.953125 102.285156 L 195.367188 102.285156 "/>
<path style=" stroke:none;fill-rule:nonzero;fill:rgb(56.864929%,56.079102%,56.274414%);fill-opacity:1;" d="M 199.679688 106.042969 C 200.257812 106.394531 201.351562 106.765625 202.261719 106.765625 C 203.375 106.765625 203.867188 106.308594 203.867188 105.652344 C 203.867188 104.96875 203.457031 104.617188 202.21875 104.183594 C 200.257812 103.507812 199.433594 102.429688 199.453125 101.257812 C 199.453125 99.480469 200.917969 98.097656 203.25 98.097656 C 204.363281 98.097656 205.335938 98.390625 205.910156 98.699219 L 205.414062 100.492188 C 204.984375 100.246094 204.179688 99.914062 203.289062 99.914062 C 202.382812 99.914062 201.886719 100.347656 201.886719 100.96875 C 201.886719 101.605469 202.363281 101.914062 203.640625 102.371094 C 205.457031 103.03125 206.304688 103.960938 206.324219 105.445312 C 206.324219 107.261719 204.898438 108.601562 202.238281 108.601562 C 201.019531 108.601562 199.929688 108.292969 199.1875 107.878906 L 199.679688 106.042969 "/>
<path style=" stroke:none;fill-rule:nonzero;fill:rgb(56.864929%,56.079102%,56.274414%);fill-opacity:1;" d="M 210.203125 104.0625 C 210.265625 105.878906 211.6875 106.660156 213.296875 106.660156 C 214.472656 106.660156 215.320312 106.496094 216.082031 106.207031 L 216.453125 107.960938 C 215.589844 108.3125 214.390625 108.601562 212.945312 108.601562 C 209.6875 108.601562 207.769531 106.582031 207.769531 103.507812 C 207.769531 100.71875 209.460938 98.097656 212.679688 98.097656 C 215.960938 98.097656 217.011719 100.78125 217.011719 102.988281 C 217.011719 103.464844 216.972656 103.835938 216.929688 104.0625 Z M 214.617188 102.285156 C 214.640625 101.359375 214.226562 99.832031 212.535156 99.832031 C 210.964844 99.832031 210.304688 101.257812 210.203125 102.285156 L 214.617188 102.285156 "/>
<path style=" stroke:none;fill-rule:nonzero;fill:rgb(56.864929%,56.079102%,56.274414%);fill-opacity:1;" d="M 226.855469 105.960938 C 226.855469 106.867188 226.894531 107.757812 226.996094 108.375 L 224.707031 108.375 L 224.542969 107.261719 L 224.480469 107.261719 C 223.859375 108.042969 222.808594 108.601562 221.511719 108.601562 C 219.488281 108.601562 218.351562 107.136719 218.351562 105.609375 C 218.351562 103.074219 220.601562 101.792969 224.316406 101.8125 L 224.316406 101.648438 C 224.316406 100.988281 224.046875 99.894531 222.273438 99.894531 C 221.28125 99.894531 220.25 100.203125 219.570312 100.636719 L 219.074219 98.984375 C 219.816406 98.53125 221.117188 98.097656 222.707031 98.097656 C 225.925781 98.097656 226.855469 100.144531 226.855469 102.328125 Z M 224.378906 103.464844 C 222.582031 103.421875 220.871094 103.816406 220.871094 105.34375 C 220.871094 106.332031 221.511719 106.785156 222.3125 106.785156 C 223.324219 106.785156 224.066406 106.125 224.296875 105.402344 C 224.355469 105.21875 224.378906 105.011719 224.378906 104.84375 L 224.378906 103.464844 "/>
<path style=" stroke:none;fill-rule:nonzero;fill:rgb(56.864929%,56.079102%,56.274414%);fill-opacity:1;" d="M 229.535156 101.566406 C 229.535156 100.203125 229.515625 99.234375 229.453125 98.328125 L 231.660156 98.328125 L 231.742188 100.246094 L 231.824219 100.246094 C 232.320312 98.824219 233.496094 98.097656 234.570312 98.097656 C 234.816406 98.097656 234.960938 98.121094 235.167969 98.160156 L 235.167969 100.554688 C 234.960938 100.515625 234.734375 100.472656 234.425781 100.472656 C 233.207031 100.472656 232.382812 101.257812 232.15625 102.390625 C 232.113281 102.617188 232.074219 102.886719 232.074219 103.175781 L 232.074219 108.375 L 229.535156 108.375 L 229.535156 101.566406 "/>
<path style=" stroke:none;fill-rule:nonzero;fill:rgb(56.864929%,56.079102%,56.274414%);fill-opacity:1;" d="M 244.082031 108.066406 C 243.546875 108.3125 242.492188 108.601562 241.234375 108.601562 C 238.097656 108.601562 236.054688 106.582031 236.054688 103.464844 C 236.054688 100.453125 238.117188 98.097656 241.644531 98.097656 C 242.574219 98.097656 243.523438 98.304688 244.101562 98.574219 L 243.648438 100.472656 C 243.234375 100.285156 242.636719 100.082031 241.730469 100.082031 C 239.789062 100.082031 238.632812 101.503906 238.65625 103.339844 C 238.65625 105.402344 239.996094 106.582031 241.730469 106.582031 C 242.617188 106.582031 243.234375 106.394531 243.730469 106.1875 L 244.082031 108.066406 "/>
<path style=" stroke:none;fill-rule:nonzero;fill:rgb(56.864929%,56.079102%,56.274414%);fill-opacity:1;" d="M 245.957031 93.722656 L 248.515625 93.722656 L 248.515625 99.710938 L 248.558594 99.710938 C 248.867188 99.234375 249.300781 98.824219 249.816406 98.550781 C 250.3125 98.265625 250.910156 98.097656 251.550781 98.097656 C 253.261719 98.097656 255.058594 99.234375 255.058594 102.453125 L 255.058594 108.375 L 252.519531 108.375 L 252.519531 102.742188 C 252.519531 101.277344 251.984375 100.183594 250.578125 100.183594 C 249.589844 100.183594 248.890625 100.84375 248.621094 101.605469 C 248.535156 101.8125 248.515625 102.082031 248.515625 102.371094 L 248.515625 108.375 L 245.957031 108.375 L 245.957031 93.722656 "/>
<path style=" stroke:none;fill-rule:nonzero;fill:rgb(56.864929%,56.079102%,56.274414%);fill-opacity:1;" d="M 271.585938 103.257812 C 271.585938 106.953125 268.984375 108.601562 266.425781 108.601562 C 263.578125 108.601562 261.390625 106.640625 261.390625 103.421875 C 261.390625 100.121094 263.558594 98.097656 266.589844 98.097656 C 269.582031 98.097656 271.585938 100.203125 271.585938 103.257812 Z M 264.011719 103.359375 C 264.011719 105.300781 264.960938 106.765625 266.507812 106.765625 C 267.953125 106.765625 268.964844 105.34375 268.964844 103.320312 C 268.964844 101.753906 268.261719 99.957031 266.527344 99.957031 C 264.734375 99.957031 264.011719 101.691406 264.011719 103.359375 "/>
<path style=" stroke:none;fill-rule:nonzero;fill:rgb(56.864929%,56.079102%,56.274414%);fill-opacity:1;" d="M 273.667969 101.320312 C 273.667969 100.160156 273.644531 99.195312 273.585938 98.328125 L 275.8125 98.328125 L 275.9375 99.832031 L 276 99.832031 C 276.433594 99.046875 277.523438 98.097656 279.195312 98.097656 C 280.949219 98.097656 282.765625 99.234375 282.765625 102.410156 L 282.765625 108.375 L 280.230469 108.375 L 280.230469 102.703125 C 280.230469 101.257812 279.691406 100.160156 278.308594 100.160156 C 277.300781 100.160156 276.597656 100.886719 276.328125 101.648438 C 276.246094 101.875 276.226562 102.183594 276.226562 102.472656 L 276.226562 108.375 L 273.667969 108.375 L 273.667969 101.320312 "/>
<path style=" stroke:none;fill-rule:nonzero;fill:rgb(56.864929%,56.079102%,56.274414%);fill-opacity:1;" d="M 55.667969 128.59375 C 55.070312 128.90625 53.75 129.234375 52.078125 129.234375 C 47.660156 129.234375 44.980469 126.449219 44.980469 122.21875 C 44.980469 117.640625 48.15625 114.871094 52.40625 114.871094 C 54.078125 114.871094 55.277344 115.222656 55.792969 115.492188 L 55.234375 117.515625 C 54.574219 117.226562 53.664062 116.976562 52.511719 116.976562 C 49.683594 116.976562 47.640625 118.753906 47.640625 122.09375 C 47.640625 125.148438 49.4375 127.109375 52.488281 127.109375 C 53.523438 127.109375 54.59375 126.902344 55.253906 126.59375 L 55.667969 128.59375 "/>
<path style=" stroke:none;fill-rule:nonzero;fill:rgb(56.864929%,56.079102%,56.274414%);fill-opacity:1;" d="M 57.667969 122.199219 C 57.667969 120.835938 57.648438 119.867188 57.585938 118.960938 L 59.792969 118.960938 L 59.878906 120.878906 L 59.960938 120.878906 C 60.457031 119.453125 61.632812 118.730469 62.703125 118.730469 C 62.953125 118.730469 63.09375 118.753906 63.300781 118.792969 L 63.300781 121.1875 C 63.09375 121.148438 62.867188 121.105469 62.558594 121.105469 C 61.34375 121.105469 60.515625 121.890625 60.289062 123.023438 C 60.246094 123.25 60.207031 123.519531 60.207031 123.804688 L 60.207031 129.007812 L 57.667969 129.007812 L 57.667969 122.199219 "/>
<path style=" stroke:none;fill-rule:nonzero;fill:rgb(56.864929%,56.079102%,56.274414%);fill-opacity:1;" d="M 67.054688 118.960938 L 68.871094 124.34375 C 69.078125 124.960938 69.285156 125.726562 69.429688 126.304688 L 69.488281 126.304688 C 69.65625 125.726562 69.84375 124.984375 70.027344 124.324219 L 71.59375 118.960938 L 74.320312 118.960938 L 71.800781 125.808594 C 70.417969 129.5625 69.488281 131.234375 68.292969 132.265625 C 67.304688 133.15625 66.273438 133.484375 65.632812 133.566406 L 65.054688 131.421875 C 65.488281 131.320312 66.023438 131.089844 66.539062 130.71875 C 67.015625 130.410156 67.570312 129.8125 67.921875 129.132812 C 68.027344 128.945312 68.089844 128.800781 68.089844 128.675781 C 68.089844 128.574219 68.066406 128.429688 67.945312 128.179688 L 64.269531 118.960938 L 67.054688 118.960938 "/>
<path style=" stroke:none;fill-rule:nonzero;fill:rgb(56.864929%,56.079102%,56.274414%);fill-opacity:1;" d="M 75.78125 122.300781 C 75.78125 120.980469 75.742188 119.90625 75.703125 118.960938 L 77.929688 118.960938 L 78.054688 120.507812 L 78.09375 120.507812 C 78.835938 119.371094 80.015625 118.730469 81.539062 118.730469 C 83.851562 118.730469 85.769531 120.714844 85.769531 123.847656 C 85.769531 127.480469 83.480469 129.234375 81.191406 129.234375 C 79.929688 129.234375 78.878906 128.699219 78.363281 127.894531 L 78.320312 127.894531 L 78.320312 133.09375 L 75.78125 133.09375 Z M 78.320312 124.796875 C 78.320312 125.042969 78.34375 125.273438 78.40625 125.5 C 78.652344 126.53125 79.558594 127.273438 80.632812 127.273438 C 82.242188 127.273438 83.191406 125.933594 83.191406 123.953125 C 83.191406 122.175781 82.324219 120.730469 80.695312 120.730469 C 79.640625 120.730469 78.671875 121.496094 78.425781 122.609375 C 78.363281 122.816406 78.320312 123.042969 78.320312 123.25 L 78.320312 124.796875 "/>
<path style=" stroke:none;fill-rule:nonzero;fill:rgb(56.864929%,56.079102%,56.274414%);fill-opacity:1;" d="M 90.761719 116.378906 L 90.761719 118.960938 L 93.175781 118.960938 L 93.175781 120.855469 L 90.761719 120.855469 L 90.761719 125.292969 C 90.761719 126.511719 91.09375 127.148438 92.0625 127.148438 C 92.535156 127.148438 92.765625 127.109375 93.054688 127.023438 L 93.09375 128.964844 C 92.722656 129.109375 92.0625 129.234375 91.257812 129.234375 C 90.332031 129.234375 89.546875 128.90625 89.070312 128.386719 C 88.535156 127.8125 88.285156 126.902344 88.285156 125.582031 L 88.285156 120.855469 L 86.84375 120.855469 L 86.84375 118.960938 L 88.285156 118.960938 L 88.285156 117.101562 L 90.761719 116.378906 "/>
<path style=" stroke:none;fill-rule:nonzero;fill:rgb(56.864929%,56.079102%,56.274414%);fill-opacity:1;" d="M 104.527344 123.890625 C 104.527344 127.582031 101.925781 129.234375 99.367188 129.234375 C 96.519531 129.234375 94.332031 127.273438 94.332031 124.054688 C 94.332031 120.753906 96.5 118.730469 99.53125 118.730469 C 102.523438 118.730469 104.527344 120.835938 104.527344 123.890625 Z M 96.953125 123.992188 C 96.953125 125.933594 97.902344 127.398438 99.449219 127.398438 C 100.894531 127.398438 101.90625 125.972656 101.90625 123.953125 C 101.90625 122.382812 101.203125 120.589844 99.46875 120.589844 C 97.675781 120.589844 96.953125 122.324219 96.953125 123.992188 "/>
<path style=" stroke:none;fill-rule:nonzero;fill:rgb(56.864929%,56.079102%,56.274414%);fill-opacity:1;" d="M 115.710938 127.542969 C 115.710938 129.644531 115.273438 131.152344 114.222656 132.101562 C 113.171875 133.03125 111.726562 133.316406 110.34375 133.316406 C 109.066406 133.316406 107.703125 133.050781 106.835938 132.511719 L 107.394531 130.59375 C 108.03125 130.96875 109.105469 131.359375 110.324219 131.359375 C 111.976562 131.359375 113.210938 130.492188 113.210938 128.324219 L 113.210938 127.457031 L 113.171875 127.457031 C 112.59375 128.347656 111.5625 128.945312 110.242188 128.945312 C 107.742188 128.945312 105.96875 126.882812 105.96875 124.035156 C 105.96875 120.730469 108.117188 118.730469 110.53125 118.730469 C 112.058594 118.730469 112.964844 119.472656 113.4375 120.300781 L 113.480469 120.300781 L 113.585938 118.960938 L 115.789062 118.960938 C 115.75 119.640625 115.710938 120.464844 115.710938 121.847656 Z M 113.171875 122.980469 C 113.171875 122.753906 113.148438 122.507812 113.089844 122.300781 C 112.820312 121.371094 112.097656 120.671875 111.023438 120.671875 C 109.601562 120.671875 108.550781 121.910156 108.550781 123.953125 C 108.550781 125.664062 109.414062 127.046875 111.003906 127.046875 C 111.953125 127.046875 112.777344 126.425781 113.066406 125.519531 C 113.128906 125.25 113.171875 124.898438 113.171875 124.613281 L 113.171875 122.980469 "/>
<path style=" stroke:none;fill-rule:nonzero;fill:rgb(56.864929%,56.079102%,56.274414%);fill-opacity:1;" d="M 118.347656 122.199219 C 118.347656 120.835938 118.328125 119.867188 118.265625 118.960938 L 120.476562 118.960938 L 120.558594 120.878906 L 120.640625 120.878906 C 121.136719 119.453125 122.3125 118.730469 123.382812 118.730469 C 123.632812 118.730469 123.773438 118.753906 123.980469 118.792969 L 123.980469 121.1875 C 123.773438 121.148438 123.550781 121.105469 123.238281 121.105469 C 122.019531 121.105469 121.195312 121.890625 120.96875 123.023438 C 120.929688 123.25 120.886719 123.519531 120.886719 123.804688 L 120.886719 129.007812 L 118.347656 129.007812 L 118.347656 122.199219 "/>
<path style=" stroke:none;fill-rule:nonzero;fill:rgb(56.864929%,56.079102%,56.274414%);fill-opacity:1;" d="M 133.308594 126.59375 C 133.308594 127.5 133.347656 128.386719 133.453125 129.007812 L 131.160156 129.007812 L 130.996094 127.894531 L 130.933594 127.894531 C 130.316406 128.675781 129.265625 129.234375 127.964844 129.234375 C 125.941406 129.234375 124.808594 127.769531 124.808594 126.242188 C 124.808594 123.703125 127.054688 122.425781 130.769531 122.445312 L 130.769531 122.28125 C 130.769531 121.621094 130.5 120.527344 128.726562 120.527344 C 127.734375 120.527344 126.703125 120.835938 126.023438 121.269531 L 125.527344 119.617188 C 126.269531 119.164062 127.570312 118.730469 129.160156 118.730469 C 132.378906 118.730469 133.308594 120.773438 133.308594 122.960938 Z M 130.832031 124.09375 C 129.035156 124.054688 127.324219 124.449219 127.324219 125.972656 C 127.324219 126.964844 127.964844 127.417969 128.769531 127.417969 C 129.777344 127.417969 130.523438 126.757812 130.75 126.035156 C 130.8125 125.851562 130.832031 125.644531 130.832031 125.480469 L 130.832031 124.09375 "/>
<path style=" stroke:none;fill-rule:nonzero;fill:rgb(56.864929%,56.079102%,56.274414%);fill-opacity:1;" d="M 135.988281 122.300781 C 135.988281 120.980469 135.949219 119.90625 135.90625 118.960938 L 138.136719 118.960938 L 138.261719 120.507812 L 138.300781 120.507812 C 139.042969 119.371094 140.21875 118.730469 141.746094 118.730469 C 144.058594 118.730469 145.976562 120.714844 145.976562 123.847656 C 145.976562 127.480469 143.6875 129.234375 141.394531 129.234375 C 140.136719 129.234375 139.085938 128.699219 138.566406 127.894531 L 138.527344 127.894531 L 138.527344 133.09375 L 135.988281 133.09375 Z M 138.527344 124.796875 C 138.527344 125.042969 138.546875 125.273438 138.609375 125.5 C 138.855469 126.53125 139.765625 127.273438 140.839844 127.273438 C 142.445312 127.273438 143.394531 125.933594 143.394531 123.953125 C 143.394531 122.175781 142.53125 120.730469 140.898438 120.730469 C 139.847656 120.730469 138.878906 121.496094 138.632812 122.609375 C 138.566406 122.816406 138.527344 123.042969 138.527344 123.25 L 138.527344 124.796875 "/>
<path style=" stroke:none;fill-rule:nonzero;fill:rgb(56.864929%,56.079102%,56.274414%);fill-opacity:1;" d="M 148.058594 114.355469 L 150.617188 114.355469 L 150.617188 120.34375 L 150.660156 120.34375 C 150.96875 119.867188 151.402344 119.453125 151.917969 119.183594 C 152.414062 118.898438 153.011719 118.730469 153.652344 118.730469 C 155.363281 118.730469 157.160156 119.867188 157.160156 123.085938 L 157.160156 129.007812 L 154.621094 129.007812 L 154.621094 123.375 C 154.621094 121.910156 154.085938 120.816406 152.683594 120.816406 C 151.691406 120.816406 150.988281 121.476562 150.722656 122.238281 C 150.640625 122.445312 150.617188 122.714844 150.617188 123.003906 L 150.617188 129.007812 L 148.058594 129.007812 L 148.058594 114.355469 "/>
<path style=" stroke:none;fill-rule:nonzero;fill:rgb(56.864929%,56.079102%,56.274414%);fill-opacity:1;" d="M 161.121094 118.960938 L 162.9375 124.34375 C 163.144531 124.960938 163.347656 125.726562 163.492188 126.304688 L 163.554688 126.304688 C 163.71875 125.726562 163.90625 124.984375 164.09375 124.324219 L 165.660156 118.960938 L 168.382812 118.960938 L 165.867188 125.808594 C 164.484375 129.5625 163.554688 131.234375 162.359375 132.265625 C 161.367188 133.15625 160.335938 133.484375 159.695312 133.566406 L 159.117188 131.421875 C 159.554688 131.320312 160.089844 131.089844 160.605469 130.71875 C 161.078125 130.410156 161.636719 129.8125 161.988281 129.132812 C 162.089844 128.945312 162.152344 128.800781 162.152344 128.675781 C 162.152344 128.574219 162.132812 128.429688 162.007812 128.179688 L 158.335938 118.960938 L 161.121094 118.960938 "/>
<path style=" stroke:none;fill-rule:nonzero;fill:rgb(56.864929%,56.079102%,56.274414%);fill-opacity:1;" d="M 181.917969 126.59375 C 181.917969 127.5 181.960938 128.386719 182.0625 129.007812 L 179.769531 129.007812 L 179.605469 127.894531 L 179.546875 127.894531 C 178.925781 128.675781 177.875 129.234375 176.574219 129.234375 C 174.550781 129.234375 173.417969 127.769531 173.417969 126.242188 C 173.417969 123.703125 175.664062 122.425781 179.378906 122.445312 L 179.378906 122.28125 C 179.378906 121.621094 179.109375 120.527344 177.335938 120.527344 C 176.347656 120.527344 175.316406 120.835938 174.636719 121.269531 L 174.140625 119.617188 C 174.882812 119.164062 176.183594 118.730469 177.769531 118.730469 C 180.988281 118.730469 181.917969 120.773438 181.917969 122.960938 Z M 179.441406 124.09375 C 177.644531 124.054688 175.933594 124.449219 175.933594 125.972656 C 175.933594 126.964844 176.574219 127.417969 177.378906 127.417969 C 178.390625 127.417969 179.132812 126.757812 179.359375 126.035156 C 179.421875 125.851562 179.441406 125.644531 179.441406 125.480469 L 179.441406 124.09375 "/>
<path style=" stroke:none;fill-rule:nonzero;fill:rgb(56.864929%,56.079102%,56.274414%);fill-opacity:1;" d="M 184.601562 121.949219 C 184.601562 120.792969 184.578125 119.824219 184.519531 118.960938 L 186.746094 118.960938 L 186.871094 120.464844 L 186.933594 120.464844 C 187.363281 119.679688 188.457031 118.730469 190.128906 118.730469 C 191.882812 118.730469 193.699219 119.867188 193.699219 123.042969 L 193.699219 129.007812 L 191.160156 129.007812 L 191.160156 123.332031 C 191.160156 121.890625 190.625 120.792969 189.242188 120.792969 C 188.230469 120.792969 187.53125 121.519531 187.261719 122.28125 C 187.179688 122.507812 187.15625 122.816406 187.15625 123.105469 L 187.15625 129.007812 L 184.601562 129.007812 L 184.601562 121.949219 "/>
<path style=" stroke:none;fill-rule:nonzero;fill:rgb(56.864929%,56.079102%,56.274414%);fill-opacity:1;" d="M 205.664062 114.355469 L 205.664062 126.179688 C 205.664062 127.210938 205.707031 128.324219 205.746094 129.007812 L 203.480469 129.007812 L 203.375 127.417969 L 203.335938 127.417969 C 202.734375 128.53125 201.519531 129.234375 200.054688 129.234375 C 197.660156 129.234375 195.761719 127.191406 195.761719 124.09375 C 195.742188 120.730469 197.847656 118.730469 200.261719 118.730469 C 201.644531 118.730469 202.632812 119.308594 203.085938 120.050781 L 203.128906 120.050781 L 203.128906 114.355469 Z M 203.128906 123.148438 C 203.128906 122.941406 203.105469 122.695312 203.066406 122.484375 C 202.839844 121.496094 202.035156 120.691406 200.878906 120.691406 C 199.25 120.691406 198.339844 122.136719 198.339844 124.011719 C 198.339844 125.851562 199.25 127.191406 200.859375 127.191406 C 201.890625 127.191406 202.796875 126.488281 203.046875 125.394531 C 203.105469 125.167969 203.128906 124.921875 203.128906 124.652344 L 203.128906 123.148438 "/>
<path style=" stroke:none;fill-rule:nonzero;fill:rgb(56.864929%,56.079102%,56.274414%);fill-opacity:1;" d="M 212.699219 126.242188 C 213.527344 126.71875 214.765625 127.128906 216.0625 127.128906 C 217.695312 127.128906 218.601562 126.363281 218.601562 125.230469 C 218.601562 124.179688 217.898438 123.558594 216.125 122.917969 C 213.835938 122.09375 212.371094 120.878906 212.371094 118.875 C 212.371094 116.605469 214.269531 114.871094 217.28125 114.871094 C 218.785156 114.871094 219.902344 115.203125 220.625 115.574219 L 220.003906 117.617188 C 219.511719 117.347656 218.539062 116.957031 217.238281 116.957031 C 215.632812 116.957031 214.929688 117.824219 214.929688 118.628906 C 214.929688 119.703125 215.734375 120.199219 217.589844 120.917969 C 220.003906 121.828125 221.179688 123.042969 221.179688 125.042969 C 221.179688 127.273438 219.488281 129.234375 215.898438 129.234375 C 214.433594 129.234375 212.90625 128.800781 212.144531 128.347656 L 212.699219 126.242188 "/>
<path style=" stroke:none;fill-rule:nonzero;fill:rgb(56.864929%,56.079102%,56.274414%);fill-opacity:1;" d="M 225.285156 124.695312 C 225.347656 126.511719 226.773438 127.292969 228.382812 127.292969 C 229.558594 127.292969 230.402344 127.128906 231.167969 126.839844 L 231.539062 128.59375 C 230.671875 128.945312 229.476562 129.234375 228.03125 129.234375 C 224.769531 129.234375 222.851562 127.210938 222.851562 124.136719 C 222.851562 121.351562 224.542969 118.730469 227.761719 118.730469 C 231.042969 118.730469 232.097656 121.414062 232.097656 123.621094 C 232.097656 124.09375 232.054688 124.46875 232.011719 124.695312 Z M 229.703125 122.917969 C 229.722656 121.992188 229.3125 120.464844 227.617188 120.464844 C 226.050781 120.464844 225.390625 121.890625 225.285156 122.917969 L 229.703125 122.917969 "/>
<path style=" stroke:none;fill-rule:nonzero;fill:rgb(56.864929%,56.079102%,56.274414%);fill-opacity:1;" d="M 241.523438 128.699219 C 240.988281 128.945312 239.9375 129.234375 238.679688 129.234375 C 235.539062 129.234375 233.496094 127.210938 233.496094 124.09375 C 233.496094 121.085938 235.5625 118.730469 239.089844 118.730469 C 240.019531 118.730469 240.96875 118.9375 241.546875 119.207031 L 241.09375 121.105469 C 240.679688 120.917969 240.078125 120.714844 239.171875 120.714844 C 237.234375 120.714844 236.078125 122.136719 236.097656 123.972656 C 236.097656 126.035156 237.4375 127.210938 239.171875 127.210938 C 240.058594 127.210938 240.679688 127.023438 241.175781 126.820312 L 241.523438 128.699219 "/>
<path style=" stroke:none;fill-rule:nonzero;fill:rgb(56.864929%,56.079102%,56.274414%);fill-opacity:1;" d="M 252.398438 125.992188 C 252.398438 127.191406 252.4375 128.179688 252.480469 129.007812 L 250.253906 129.007812 L 250.128906 127.480469 L 250.085938 127.480469 C 249.652344 128.203125 248.664062 129.234375 246.867188 129.234375 C 245.03125 129.234375 243.359375 128.140625 243.359375 124.859375 L 243.359375 118.960938 L 245.898438 118.960938 L 245.898438 124.425781 C 245.898438 126.097656 246.433594 127.167969 247.777344 127.167969 C 248.785156 127.167969 249.445312 126.449219 249.714844 125.808594 C 249.796875 125.582031 249.859375 125.3125 249.859375 125.023438 L 249.859375 118.960938 L 252.398438 118.960938 L 252.398438 125.992188 "/>
<path style=" stroke:none;fill-rule:nonzero;fill:rgb(56.864929%,56.079102%,56.274414%);fill-opacity:1;" d="M 255.140625 122.199219 C 255.140625 120.835938 255.121094 119.867188 255.058594 118.960938 L 257.265625 118.960938 L 257.347656 120.878906 L 257.433594 120.878906 C 257.925781 119.453125 259.101562 118.730469 260.175781 118.730469 C 260.421875 118.730469 260.566406 118.753906 260.773438 118.792969 L 260.773438 121.1875 C 260.566406 121.148438 260.339844 121.105469 260.03125 121.105469 C 258.8125 121.105469 257.988281 121.890625 257.761719 123.023438 C 257.71875 123.25 257.679688 123.519531 257.679688 123.804688 L 257.679688 129.007812 L 255.140625 129.007812 L 255.140625 122.199219 "/>
<path style=" stroke:none;fill-rule:nonzero;fill:rgb(56.864929%,56.079102%,56.274414%);fill-opacity:1;" d="M 265.1875 116.152344 C 265.1875 116.914062 264.632812 117.515625 263.742188 117.515625 C 262.898438 117.515625 262.34375 116.914062 262.34375 116.152344 C 262.34375 115.367188 262.917969 114.769531 263.765625 114.769531 C 264.632812 114.769531 265.167969 115.367188 265.1875 116.152344 Z M 262.484375 129.007812 L 262.484375 118.960938 L 265.042969 118.960938 L 265.042969 129.007812 L 262.484375 129.007812 "/>
<path style=" stroke:none;fill-rule:nonzero;fill:rgb(56.864929%,56.079102%,56.274414%);fill-opacity:1;" d="M 270.675781 116.378906 L 270.675781 118.960938 L 273.089844 118.960938 L 273.089844 120.855469 L 270.675781 120.855469 L 270.675781 125.292969 C 270.675781 126.511719 271.007812 127.148438 271.976562 127.148438 C 272.449219 127.148438 272.679688 127.109375 272.96875 127.023438 L 273.007812 128.964844 C 272.636719 129.109375 271.976562 129.234375 271.171875 129.234375 C 270.242188 129.234375 269.460938 128.90625 268.984375 128.386719 C 268.449219 127.8125 268.199219 126.902344 268.199219 125.582031 L 268.199219 120.855469 L 266.757812 120.855469 L 266.757812 118.960938 L 268.199219 118.960938 L 268.199219 117.101562 L 270.675781 116.378906 "/>
<path style=" stroke:none;fill-rule:nonzero;fill:rgb(56.864929%,56.079102%,56.274414%);fill-opacity:1;" d="M 276.742188 118.960938 L 278.558594 124.34375 C 278.765625 124.960938 278.972656 125.726562 279.117188 126.304688 L 279.179688 126.304688 C 279.34375 125.726562 279.527344 124.984375 279.714844 124.324219 L 281.28125 118.960938 L 284.007812 118.960938 L 281.488281 125.808594 C 280.105469 129.5625 279.179688 131.234375 277.980469 132.265625 C 276.992188 133.15625 275.960938 133.484375 275.320312 133.566406 L 274.742188 131.421875 C 275.175781 131.320312 275.710938 131.089844 276.226562 130.71875 C 276.703125 130.410156 277.257812 129.8125 277.609375 129.132812 C 277.714844 128.945312 277.773438 128.800781 277.773438 128.675781 C 277.773438 128.574219 277.753906 128.429688 277.632812 128.179688 L 273.957031 118.960938 L 276.742188 118.960938 "/>
</g>
</svg>
