<?xml version="1.0" encoding="UTF-8" standalone="no"?>
<svg xmlns="http://www.w3.org/2000/svg" width="500" height="125">
    <g transform="scale(1.3 1.3)">
        <circle cx="60.848999" cy="25.961" r="5.8740001"/>
        <ellipse transform="rotate(83.321 45.64056875 30.815676)" cx="45.639999" cy="30.816999" rx="3.349" ry="2.0139999"/>
        <path d="M85.167 19.398C79.725 6.692 68.979 4.666 63.072 4.666c-7.711 0-17.432 5.882-20.17 15.757 2.485.584 4.776 2.18 5.814 4.767.649-1.674 1.113-3.356 1.915-4.857 2.927-5.477 9.022-8.125 14.565-6.454 5.434 1.638 9.167 7.028 8.651 12.491-.574 6.086-5.304 10.745-11.765 11.155-4.505.286-9.259.99-10.731 6.894-2.451-3.22-3.114-5.539-3.441-7.205-8.556 4.29-16.4 7.648-22.97 14.946-4.801 5.333-8.348 11.684-10.696 18.448-1.331 3.833-1.901 7.93-2.934 12.41 25.592 2.187 43.341-8.582 56.046-29.157C62.89 70.458 48.974 78.95 34.832 84.732c.758.509 5.798 1.367 5.798 1.367s2.451 4.053 2.811 4.612c-3.083.257-3.808 3.066-3.7 3.484h8.942c-.005-.005-.01-.011-.015-.016H67c.17-.418-2.56-3.595-4.535-3.467-4.458.287-5.713-2.416-7.494-5.757 17.634967-6.026223 30.69479-23.81897 31.827834-33.333639C87.931878 42.106692 88.920505 28.578246 85.167 19.398zM48.744 90.711l-3.357-4.612 5.672-.463 3.408 5.075z"/>
    </g>
    <text style="line-height:1.25;text-align:center" x="189.51176" y="76.53093" text-anchor="middle">
        <tspan x="259.51176" y="90.53093" font-weight="900" font-size="70" font-style="italic" font-family="Exo Black">
            Minerva
        </tspan>
    </text>
</svg>