<?xml version="1.0" encoding="UTF-8" standalone="no"?>
<svg
   xmlns:dc="http://purl.org/dc/elements/1.1/"
   xmlns:cc="http://creativecommons.org/ns#"
   xmlns:rdf="http://www.w3.org/1999/02/22-rdf-syntax-ns#"
   xmlns="http://www.w3.org/2000/svg"
   width="20.244164mm"
   height="23.687883mm"
   viewBox="0 0 20.244164 23.687883"
   version="1.1"
   id="svg4591">
  <defs
     id="defs4585" />
  <metadata
     id="metadata4588">
    <rdf:RDF>
      <cc:Work rdf:about="">
        <dc:format>image/svg+xml</dc:format>
        <dc:type rdf:resource="http://purl.org/dc/dcmitype/StillImage" />
        <dc:title>Owl</dc:title>
      </cc:Work>
    </rdf:RDF>
  </metadata>
  <g id="layer1"
     transform="translate(-125.19338,-96.923917)">
    <circle
       cx="138.30057"
       cy="102.55822"
       r="1.5541625"
       id="circle873"
       style="stroke-width:0.26458332" />
    <ellipse
       style="stroke-width:0.26457962"
       transform="rotate(83.321293)"
       cx="118.75445"
       cy="-121.28804"
       rx="0.88607717"
       ry="0.53286332"
       id="ellipse875" />
    <path
       d="m 144.73471,100.82176 c -1.43986,-3.361798 -4.28307,-3.897843 -5.84597,-3.897843 -2.0402,0 -4.61221,1.556279 -5.33664,4.169043 0.65749,0.15451 1.26365,0.57679 1.53828,1.26126 0.17172,-0.44291 0.29449,-0.88794 0.50668,-1.28508 0.77444,-1.449119 2.38707,-2.149736 3.85366,-1.707617 1.43774,0.433387 2.42543,1.859487 2.28891,3.304907 -0.15187,1.61026 -1.40335,2.84295 -3.11282,2.95143 -1.19195,0.0757 -2.44978,0.26194 -2.83925,1.82404 -0.64849,-0.85196 -0.82391,-1.46553 -0.91043,-1.90633 -2.26377,1.13507 -4.33917,2.02354 -6.07748,3.95447 -1.27026,1.41102 -2.20874,3.09139 -2.82998,4.88103 -0.35216,1.01415 -0.50297,2.09815 -0.77629,3.28348 6.77122,0.57864 11.46731,-2.27065 14.82884,-7.71446 -1.18163,4.39129 -4.86357,6.63813 -8.60531,8.16796 0.20055,0.13467 1.53405,0.36168 1.53405,0.36168 0,0 0.6485,1.07236 0.74375,1.22026 -0.81571,0.068 -1.00754,0.81121 -0.97896,0.92181 h 2.3659 c -0.001,-0.001 -0.003,-0.003 -0.004,-0.004 h 4.85035 c 0.045,-0.1106 -0.67734,-0.95118 -1.19989,-0.91731 -1.17951,0.0759 -1.51156,-0.63924 -1.98279,-1.52321 4.66592,-1.59444 8.12133,-6.3021 8.42112,-8.81952 0.29978,-2.51743 0.56136,-6.09683 -0.43176,-8.52577 z m -9.63692,18.86823 -0.8882,-1.22026 1.50071,-0.1225 0.9017,1.34276 z"
       id="path877"
       style="stroke-width:0.26458332" />
  </g>
</svg>
